# xmcd
#
# Track frame offsets:
#	183
#	15288
#	31125
#	45065
#	93980
#	103670
#	125435
#	153248
#	177720
#	206793
#	228525
#	248410
#	261283
#	280138
#	307585
#
# Disc length: 4287 seconds
# Revision: 0
# Processed by: cddbd v1.5.2PL0 Copyright (c) Steve Scherf et al.
# Submitted via: dBpowerAMP V12.0
#
DISCID=b310bd0f
DTITLE=Rico Blues Combo - White whiskey
DYEAR=1997
DGENRE=Blues
TTITLE0=No more doggin
TTITLE1=White whiskey
TTITLE2=Rico's shuffle
TTITLE3=Please call me on the phone
TTITLE4=Too much grappa
TTITLE5=Singin' and cryin'
TTITLE6=My heart stopped beating
TTITLE7=E-45 breakdown
TTITLE8=Dancin' all by myself
TTITLE9=Last call for heaven
TTITLE10=Maestro's back in town
TTITLE11=Run me down
TTITLE12=Tv-showman
TTITLE13=Side tracked
TTITLE14=Give me back my credit card
EXTD=
EXTT0=
EXTT1=
EXTT2=
EXTT3=
EXTT4=
EXTT5=
EXTT6=
EXTT7=
EXTT8=
EXTT9=
EXTT10=
EXTT11=
EXTT12=
EXTT13=
EXTT14=
PLAYORDER=
